<?xml version="1.0" encoding="UTF-8" standalone="no"?>
<!DOCTYPE svg PUBLIC "-//W3C//DTD SVG 1.1//EN"
 "http://www.w3.org/Graphics/SVG/1.1/DTD/svg11.dtd">
<!-- Generated by graphviz version 2.38.0 (20140413.2041)
 -->
<!-- Title: snakemake_dag Pages: 1 -->
<svg width="115pt" height="548pt"
 viewBox="0.00 0.00 115.14 548.00" xmlns="http://www.w3.org/2000/svg" xmlns:xlink="http://www.w3.org/1999/xlink">
<g id="graph0" class="graph" transform="scale(1 1) rotate(0) translate(4 544)">
<title>snakemake_dag</title>
<polygon fill="white" stroke="none" points="-4,4 -4,-544 111.14,-544 111.14,4 -4,4"/>
<!-- 0 -->
<g id="node1" class="node"><title>0</title>
<path fill="none" stroke="#d85656" stroke-width="2" d="M78.1227,-36C78.1227,-36 13.4681,-36 13.4681,-36 7.46809,-36 1.46809,-30 1.46809,-24 1.46809,-24 1.46809,-12 1.46809,-12 1.46809,-6 7.46809,-0 13.4681,-0 13.4681,-0 78.1227,-0 78.1227,-0 84.1227,-0 90.1227,-6 90.1227,-12 90.1227,-12 90.1227,-24 90.1227,-24 90.1227,-30 84.1227,-36 78.1227,-36"/>
<text text-anchor="middle" x="45.7954" y="-15" font-family="sans" font-size="10.00">haplotype_caller</text>
</g>
<!-- 1 -->
<g id="node2" class="node"><title>1</title>
<path fill="none" stroke="#68d856" stroke-width="2" d="M60.7954,-108C60.7954,-108 30.7954,-108 30.7954,-108 24.7954,-108 18.7954,-102 18.7954,-96 18.7954,-96 18.7954,-84 18.7954,-84 18.7954,-78 24.7954,-72 30.7954,-72 30.7954,-72 60.7954,-72 60.7954,-72 66.7954,-72 72.7954,-78 72.7954,-84 72.7954,-84 72.7954,-96 72.7954,-96 72.7954,-102 66.7954,-108 60.7954,-108"/>
<text text-anchor="middle" x="45.7954" y="-87" font-family="sans" font-size="10.00">BQSR</text>
</g>
<!-- 1&#45;&gt;0 -->
<g id="edge1" class="edge"><title>1&#45;&gt;0</title>
<path fill="none" stroke="grey" stroke-width="2" d="M45.7954,-71.6966C45.7954,-63.9827 45.7954,-54.7125 45.7954,-46.1124"/>
<polygon fill="grey" stroke="grey" stroke-width="2" points="49.2955,-46.1043 45.7954,-36.1043 42.2955,-46.1044 49.2955,-46.1043"/>
</g>
<!-- 2 -->
<g id="node3" class="node"><title>2</title>
<path fill="none" stroke="#56d8b9" stroke-width="2" d="M94.9856,-180C94.9856,-180 56.6052,-180 56.6052,-180 50.6052,-180 44.6052,-174 44.6052,-168 44.6052,-168 44.6052,-156 44.6052,-156 44.6052,-150 50.6052,-144 56.6052,-144 56.6052,-144 94.9856,-144 94.9856,-144 100.986,-144 106.986,-150 106.986,-156 106.986,-156 106.986,-168 106.986,-168 106.986,-174 100.986,-180 94.9856,-180"/>
<text text-anchor="middle" x="75.7954" y="-159" font-family="sans" font-size="10.00">recalibrate</text>
</g>
<!-- 2&#45;&gt;1 -->
<g id="edge2" class="edge"><title>2&#45;&gt;1</title>
<path fill="none" stroke="grey" stroke-width="2" d="M68.3797,-143.697C65.0011,-135.813 60.9258,-126.304 57.1724,-117.546"/>
<polygon fill="grey" stroke="grey" stroke-width="2" points="60.2821,-115.917 53.1258,-108.104 53.8481,-118.675 60.2821,-115.917"/>
</g>
<!-- 3 -->
<g id="node4" class="node"><title>3</title>
<path fill="none" stroke="#56d0d8" stroke-width="2" d="M78.1081,-252C78.1081,-252 13.4827,-252 13.4827,-252 7.48271,-252 1.48271,-246 1.48271,-240 1.48271,-240 1.48271,-228 1.48271,-228 1.48271,-222 7.48271,-216 13.4827,-216 13.4827,-216 78.1081,-216 78.1081,-216 84.1081,-216 90.1081,-222 90.1081,-228 90.1081,-228 90.1081,-240 90.1081,-240 90.1081,-246 84.1081,-252 78.1081,-252"/>
<text text-anchor="middle" x="45.7954" y="-231" font-family="sans" font-size="10.00">mark_duplicates</text>
</g>
<!-- 3&#45;&gt;1 -->
<g id="edge3" class="edge"><title>3&#45;&gt;1</title>
<path fill="none" stroke="grey" stroke-width="2" d="M41.7363,-215.929C39.4898,-205.598 36.9288,-192.12 35.7954,-180 34.3057,-164.07 34.3057,-159.93 35.7954,-144 36.5923,-135.478 38.095,-126.285 39.6979,-117.986"/>
<polygon fill="grey" stroke="grey" stroke-width="2" points="43.1509,-118.571 41.7363,-108.071 36.2943,-117.161 43.1509,-118.571"/>
</g>
<!-- 3&#45;&gt;2 -->
<g id="edge4" class="edge"><title>3&#45;&gt;2</title>
<path fill="none" stroke="grey" stroke-width="2" d="M53.2111,-215.697C56.5898,-207.813 60.665,-198.304 64.4184,-189.546"/>
<polygon fill="grey" stroke="grey" stroke-width="2" points="67.7427,-190.675 68.465,-180.104 61.3087,-187.917 67.7427,-190.675"/>
</g>
<!-- 4 -->
<g id="node5" class="node"><title>4</title>
<path fill="none" stroke="#8fd856" stroke-width="2" d="M69.9479,-324C69.9479,-324 21.6429,-324 21.6429,-324 15.6429,-324 9.64291,-318 9.64291,-312 9.64291,-312 9.64291,-300 9.64291,-300 9.64291,-294 15.6429,-288 21.6429,-288 21.6429,-288 69.9479,-288 69.9479,-288 75.9479,-288 81.9479,-294 81.9479,-300 81.9479,-300 81.9479,-312 81.9479,-312 81.9479,-318 75.9479,-324 69.9479,-324"/>
<text text-anchor="middle" x="45.7954" y="-303" font-family="sans" font-size="10.00">read_groups</text>
</g>
<!-- 4&#45;&gt;3 -->
<g id="edge5" class="edge"><title>4&#45;&gt;3</title>
<path fill="none" stroke="grey" stroke-width="2" d="M45.7954,-287.697C45.7954,-279.983 45.7954,-270.712 45.7954,-262.112"/>
<polygon fill="grey" stroke="grey" stroke-width="2" points="49.2955,-262.104 45.7954,-252.104 42.2955,-262.104 49.2955,-262.104"/>
</g>
<!-- 5 -->
<g id="node6" class="node"><title>5</title>
<path fill="none" stroke="#56a9d8" stroke-width="2" d="M79.3871,-396C79.3871,-396 12.2037,-396 12.2037,-396 6.20368,-396 0.20368,-390 0.20368,-384 0.20368,-384 0.20368,-372 0.20368,-372 0.20368,-366 6.20368,-360 12.2037,-360 12.2037,-360 79.3871,-360 79.3871,-360 85.3871,-360 91.3871,-366 91.3871,-372 91.3871,-372 91.3871,-384 91.3871,-384 91.3871,-390 85.3871,-396 79.3871,-396"/>
<text text-anchor="middle" x="45.7954" y="-375" font-family="sans" font-size="10.00">merge_sort_bam</text>
</g>
<!-- 5&#45;&gt;4 -->
<g id="edge6" class="edge"><title>5&#45;&gt;4</title>
<path fill="none" stroke="grey" stroke-width="2" d="M45.7954,-359.697C45.7954,-351.983 45.7954,-342.712 45.7954,-334.112"/>
<polygon fill="grey" stroke="grey" stroke-width="2" points="49.2955,-334.104 45.7954,-324.104 42.2955,-334.104 49.2955,-334.104"/>
</g>
<!-- 6 -->
<g id="node7" class="node"><title>6</title>
<path fill="none" stroke="#56d892" stroke-width="2" d="M66.1705,-468C66.1705,-468 25.4203,-468 25.4203,-468 19.4203,-468 13.4203,-462 13.4203,-456 13.4203,-456 13.4203,-444 13.4203,-444 13.4203,-438 19.4203,-432 25.4203,-432 25.4203,-432 66.1705,-432 66.1705,-432 72.1705,-432 78.1705,-438 78.1705,-444 78.1705,-444 78.1705,-456 78.1705,-456 78.1705,-462 72.1705,-468 66.1705,-468"/>
<text text-anchor="middle" x="45.7954" y="-447" font-family="sans" font-size="10.00">align_ends</text>
</g>
<!-- 6&#45;&gt;5 -->
<g id="edge7" class="edge"><title>6&#45;&gt;5</title>
<path fill="none" stroke="grey" stroke-width="2" d="M45.7954,-431.697C45.7954,-423.983 45.7954,-414.712 45.7954,-406.112"/>
<polygon fill="grey" stroke="grey" stroke-width="2" points="49.2955,-406.104 45.7954,-396.104 42.2955,-406.104 49.2955,-406.104"/>
</g>
<!-- 7 -->
<g id="node8" class="node"><title>7</title>
<path fill="none" stroke="#d87d56" stroke-width="2" d="M71.8825,-540C71.8825,-540 19.7084,-540 19.7084,-540 13.7084,-540 7.70836,-534 7.70836,-528 7.70836,-528 7.70836,-516 7.70836,-516 7.70836,-510 13.7084,-504 19.7084,-504 19.7084,-504 71.8825,-504 71.8825,-504 77.8825,-504 83.8825,-510 83.8825,-516 83.8825,-516 83.8825,-528 83.8825,-528 83.8825,-534 77.8825,-540 71.8825,-540"/>
<text text-anchor="middle" x="45.7954" y="-519" font-family="sans" font-size="10.00">pe_fastq_trim</text>
</g>
<!-- 7&#45;&gt;6 -->
<g id="edge8" class="edge"><title>7&#45;&gt;6</title>
<path fill="none" stroke="grey" stroke-width="2" d="M45.7954,-503.697C45.7954,-495.983 45.7954,-486.712 45.7954,-478.112"/>
<polygon fill="grey" stroke="grey" stroke-width="2" points="49.2955,-478.104 45.7954,-468.104 42.2955,-478.104 49.2955,-478.104"/>
</g>
</g>
</svg>
