<?xml version="1.0" encoding="UTF-8" standalone="no"?>
<!DOCTYPE svg PUBLIC "-//W3C//DTD SVG 1.1//EN"
 "http://www.w3.org/Graphics/SVG/1.1/DTD/svg11.dtd">
<!-- Generated by graphviz version 2.38.0 (20140413.2041)
 -->
<!-- Title: snakemake_dag Pages: 1 -->
<svg width="228pt" height="836pt"
 viewBox="0.00 0.00 227.88 836.00" xmlns="http://www.w3.org/2000/svg" xmlns:xlink="http://www.w3.org/1999/xlink">
<g id="graph0" class="graph" transform="scale(1 1) rotate(0) translate(4 832)">
<title>snakemake_dag</title>
<polygon fill="white" stroke="none" points="-4,4 -4,-832 223.878,-832 223.878,4 -4,4"/>
<!-- 0 -->
<g id="node1" class="node"><title>0</title>
<path fill="none" stroke="#56d882" stroke-width="2" d="M124.439,-36C124.439,-36 94.439,-36 94.439,-36 88.439,-36 82.439,-30 82.439,-24 82.439,-24 82.439,-12 82.439,-12 82.439,-6 88.439,-0 94.439,-0 94.439,-0 124.439,-0 124.439,-0 130.439,-0 136.439,-6 136.439,-12 136.439,-12 136.439,-24 136.439,-24 136.439,-30 130.439,-36 124.439,-36"/>
<text text-anchor="middle" x="109.439" y="-15" font-family="sans" font-size="10.00">all</text>
</g>
<!-- 1 -->
<g id="node2" class="node"><title>1</title>
<path fill="none" stroke="#afd856" stroke-width="2" d="M124.439,-108C124.439,-108 94.439,-108 94.439,-108 88.439,-108 82.439,-102 82.439,-96 82.439,-96 82.439,-84 82.439,-84 82.439,-78 88.439,-72 94.439,-72 94.439,-72 124.439,-72 124.439,-72 130.439,-72 136.439,-78 136.439,-84 136.439,-84 136.439,-96 136.439,-96 136.439,-102 130.439,-108 124.439,-108"/>
<text text-anchor="middle" x="109.439" y="-87" font-family="sans" font-size="10.00">filter_vcf</text>
</g>
<!-- 1&#45;&gt;0 -->
<g id="edge1" class="edge"><title>1&#45;&gt;0</title>
<path fill="none" stroke="grey" stroke-width="2" d="M109.439,-71.6966C109.439,-63.9827 109.439,-54.7125 109.439,-46.1124"/>
<polygon fill="grey" stroke="grey" stroke-width="2" points="112.939,-46.1043 109.439,-36.1043 105.939,-46.1044 112.939,-46.1043"/>
</g>
<!-- 2 -->
<g id="node3" class="node"><title>2</title>
<path fill="none" stroke="#d6d856" stroke-width="2" d="M137.988,-180C137.988,-180 80.8901,-180 80.8901,-180 74.8901,-180 68.8901,-174 68.8901,-168 68.8901,-168 68.8901,-156 68.8901,-156 68.8901,-150 74.8901,-144 80.8901,-144 80.8901,-144 137.988,-144 137.988,-144 143.988,-144 149.988,-150 149.988,-156 149.988,-156 149.988,-168 149.988,-168 149.988,-174 143.988,-180 137.988,-180"/>
<text text-anchor="middle" x="109.439" y="-159" font-family="sans" font-size="10.00">genotype_gvcf</text>
</g>
<!-- 2&#45;&gt;1 -->
<g id="edge2" class="edge"><title>2&#45;&gt;1</title>
<path fill="none" stroke="grey" stroke-width="2" d="M109.439,-143.697C109.439,-135.983 109.439,-126.712 109.439,-118.112"/>
<polygon fill="grey" stroke="grey" stroke-width="2" points="112.939,-118.104 109.439,-108.104 105.939,-118.104 112.939,-118.104"/>
</g>
<!-- 3 -->
<g id="node4" class="node"><title>3</title>
<path fill="none" stroke="#56d8d8" stroke-width="2" d="M142.932,-252C142.932,-252 75.9454,-252 75.9454,-252 69.9454,-252 63.9454,-246 63.9454,-240 63.9454,-240 63.9454,-228 63.9454,-228 63.9454,-222 69.9454,-216 75.9454,-216 75.9454,-216 142.932,-216 142.932,-216 148.932,-216 154.932,-222 154.932,-228 154.932,-228 154.932,-240 154.932,-240 154.932,-246 148.932,-252 142.932,-252"/>
<text text-anchor="middle" x="109.439" y="-231" font-family="sans" font-size="10.00">consolidate_gvcf</text>
</g>
<!-- 3&#45;&gt;2 -->
<g id="edge3" class="edge"><title>3&#45;&gt;2</title>
<path fill="none" stroke="grey" stroke-width="2" d="M109.439,-215.697C109.439,-207.983 109.439,-198.712 109.439,-190.112"/>
<polygon fill="grey" stroke="grey" stroke-width="2" points="112.939,-190.104 109.439,-180.104 105.939,-190.104 112.939,-190.104"/>
</g>
<!-- 4 -->
<g id="node5" class="node"><title>4</title>
<path fill="none" stroke="#56d8a9" stroke-width="2" d="M141.766,-324C141.766,-324 77.1116,-324 77.1116,-324 71.1116,-324 65.1116,-318 65.1116,-312 65.1116,-312 65.1116,-300 65.1116,-300 65.1116,-294 71.1116,-288 77.1116,-288 77.1116,-288 141.766,-288 141.766,-288 147.766,-288 153.766,-294 153.766,-300 153.766,-300 153.766,-312 153.766,-312 153.766,-318 147.766,-324 141.766,-324"/>
<text text-anchor="middle" x="109.439" y="-303" font-family="sans" font-size="10.00">haplotype_caller</text>
</g>
<!-- 4&#45;&gt;3 -->
<g id="edge4" class="edge"><title>4&#45;&gt;3</title>
<path fill="none" stroke="grey" stroke-width="2" d="M109.439,-287.697C109.439,-279.983 109.439,-270.712 109.439,-262.112"/>
<polygon fill="grey" stroke="grey" stroke-width="2" points="112.939,-262.104 109.439,-252.104 105.939,-262.104 112.939,-262.104"/>
</g>
<!-- 5 -->
<g id="node6" class="node"><title>5</title>
<path fill="none" stroke="#56a9d8" stroke-width="2" d="M124.439,-396C124.439,-396 94.439,-396 94.439,-396 88.439,-396 82.439,-390 82.439,-384 82.439,-384 82.439,-372 82.439,-372 82.439,-366 88.439,-360 94.439,-360 94.439,-360 124.439,-360 124.439,-360 130.439,-360 136.439,-366 136.439,-372 136.439,-372 136.439,-384 136.439,-384 136.439,-390 130.439,-396 124.439,-396"/>
<text text-anchor="middle" x="109.439" y="-375" font-family="sans" font-size="10.00">BQSR</text>
</g>
<!-- 5&#45;&gt;4 -->
<g id="edge5" class="edge"><title>5&#45;&gt;4</title>
<path fill="none" stroke="grey" stroke-width="2" d="M109.439,-359.697C109.439,-351.983 109.439,-342.712 109.439,-334.112"/>
<polygon fill="grey" stroke="grey" stroke-width="2" points="112.939,-334.104 109.439,-324.104 105.939,-334.104 112.939,-334.104"/>
</g>
<!-- 6 -->
<g id="node7" class="node"><title>6</title>
<path fill="none" stroke="#80d856" stroke-width="2" d="M141.752,-540C141.752,-540 77.1263,-540 77.1263,-540 71.1263,-540 65.1263,-534 65.1263,-528 65.1263,-528 65.1263,-516 65.1263,-516 65.1263,-510 71.1263,-504 77.1263,-504 77.1263,-504 141.752,-504 141.752,-504 147.752,-504 153.752,-510 153.752,-516 153.752,-516 153.752,-528 153.752,-528 153.752,-534 147.752,-540 141.752,-540"/>
<text text-anchor="middle" x="109.439" y="-519" font-family="sans" font-size="10.00">mark_duplicates</text>
</g>
<!-- 6&#45;&gt;5 -->
<g id="edge6" class="edge"><title>6&#45;&gt;5</title>
<path fill="none" stroke="grey" stroke-width="2" d="M105.38,-503.929C103.133,-493.598 100.572,-480.12 99.439,-468 97.9492,-452.07 97.9492,-447.93 99.439,-432 100.236,-423.478 101.739,-414.285 103.342,-405.986"/>
<polygon fill="grey" stroke="grey" stroke-width="2" points="106.794,-406.571 105.38,-396.071 99.9378,-405.161 106.794,-406.571"/>
</g>
<!-- 7 -->
<g id="node8" class="node"><title>7</title>
<path fill="none" stroke="#d88556" stroke-width="2" d="M158.629,-468C158.629,-468 120.249,-468 120.249,-468 114.249,-468 108.249,-462 108.249,-456 108.249,-456 108.249,-444 108.249,-444 108.249,-438 114.249,-432 120.249,-432 120.249,-432 158.629,-432 158.629,-432 164.629,-432 170.629,-438 170.629,-444 170.629,-444 170.629,-456 170.629,-456 170.629,-462 164.629,-468 158.629,-468"/>
<text text-anchor="middle" x="139.439" y="-447" font-family="sans" font-size="10.00">recalibrate</text>
</g>
<!-- 6&#45;&gt;7 -->
<g id="edge9" class="edge"><title>6&#45;&gt;7</title>
<path fill="none" stroke="grey" stroke-width="2" d="M116.855,-503.697C120.233,-495.813 124.309,-486.304 128.062,-477.546"/>
<polygon fill="grey" stroke="grey" stroke-width="2" points="131.386,-478.675 132.109,-468.104 124.952,-475.917 131.386,-478.675"/>
</g>
<!-- 7&#45;&gt;5 -->
<g id="edge7" class="edge"><title>7&#45;&gt;5</title>
<path fill="none" stroke="grey" stroke-width="2" d="M132.023,-431.697C128.645,-423.813 124.569,-414.304 120.816,-405.546"/>
<polygon fill="grey" stroke="grey" stroke-width="2" points="123.926,-403.917 116.769,-396.104 117.492,-406.675 123.926,-403.917"/>
</g>
<!-- 8 -->
<g id="node9" class="node"><title>8</title>
<path fill="none" stroke="#59d856" stroke-width="2" d="M133.591,-612C133.591,-612 85.2865,-612 85.2865,-612 79.2865,-612 73.2865,-606 73.2865,-600 73.2865,-600 73.2865,-588 73.2865,-588 73.2865,-582 79.2865,-576 85.2865,-576 85.2865,-576 133.591,-576 133.591,-576 139.591,-576 145.591,-582 145.591,-588 145.591,-588 145.591,-600 145.591,-600 145.591,-606 139.591,-612 133.591,-612"/>
<text text-anchor="middle" x="109.439" y="-591" font-family="sans" font-size="10.00">read_groups</text>
</g>
<!-- 8&#45;&gt;6 -->
<g id="edge8" class="edge"><title>8&#45;&gt;6</title>
<path fill="none" stroke="grey" stroke-width="2" d="M109.439,-575.697C109.439,-567.983 109.439,-558.712 109.439,-550.112"/>
<polygon fill="grey" stroke="grey" stroke-width="2" points="112.939,-550.104 109.439,-540.104 105.939,-550.104 112.939,-550.104"/>
</g>
<!-- 9 -->
<g id="node10" class="node"><title>9</title>
<path fill="none" stroke="#5682d8" stroke-width="2" d="M147.741,-684C147.741,-684 71.1368,-684 71.1368,-684 65.1368,-684 59.1368,-678 59.1368,-672 59.1368,-672 59.1368,-660 59.1368,-660 59.1368,-654 65.1368,-648 71.1368,-648 71.1368,-648 147.741,-648 147.741,-648 153.741,-648 159.741,-654 159.741,-660 159.741,-660 159.741,-672 159.741,-672 159.741,-678 153.741,-684 147.741,-684"/>
<text text-anchor="middle" x="109.439" y="-668" font-family="sans" font-size="10.00">merge_sort_bam</text>
<text text-anchor="middle" x="109.439" y="-658" font-family="sans" font-size="10.00">sample: BESC&#45;119</text>
</g>
<!-- 9&#45;&gt;8 -->
<g id="edge10" class="edge"><title>9&#45;&gt;8</title>
<path fill="none" stroke="grey" stroke-width="2" d="M109.439,-647.697C109.439,-639.983 109.439,-630.712 109.439,-622.112"/>
<polygon fill="grey" stroke="grey" stroke-width="2" points="112.939,-622.104 109.439,-612.104 105.939,-622.104 112.939,-622.104"/>
</g>
<!-- 10 -->
<g id="node11" class="node"><title>10</title>
<path fill="none" stroke="#d85656" stroke-width="2" d="M79.8141,-756C79.8141,-756 39.0638,-756 39.0638,-756 33.0638,-756 27.0638,-750 27.0638,-744 27.0638,-744 27.0638,-732 27.0638,-732 27.0638,-726 33.0638,-720 39.0638,-720 39.0638,-720 79.8141,-720 79.8141,-720 85.8141,-720 91.8141,-726 91.8141,-732 91.8141,-732 91.8141,-744 91.8141,-744 91.8141,-750 85.8141,-756 79.8141,-756"/>
<text text-anchor="middle" x="59.439" y="-735" font-family="sans" font-size="10.00">align_ends</text>
</g>
<!-- 10&#45;&gt;9 -->
<g id="edge11" class="edge"><title>10&#45;&gt;9</title>
<path fill="none" stroke="grey" stroke-width="2" d="M71.7985,-719.697C77.6717,-711.474 84.8081,-701.483 91.2813,-692.421"/>
<polygon fill="grey" stroke="grey" stroke-width="2" points="94.2572,-694.276 97.2216,-684.104 88.5611,-690.207 94.2572,-694.276"/>
</g>
<!-- 11 -->
<g id="node12" class="node"><title>11</title>
<path fill="none" stroke="#d85656" stroke-width="2" d="M179.814,-756C179.814,-756 139.064,-756 139.064,-756 133.064,-756 127.064,-750 127.064,-744 127.064,-744 127.064,-732 127.064,-732 127.064,-726 133.064,-720 139.064,-720 139.064,-720 179.814,-720 179.814,-720 185.814,-720 191.814,-726 191.814,-732 191.814,-732 191.814,-744 191.814,-744 191.814,-750 185.814,-756 179.814,-756"/>
<text text-anchor="middle" x="159.439" y="-735" font-family="sans" font-size="10.00">align_ends</text>
</g>
<!-- 11&#45;&gt;9 -->
<g id="edge12" class="edge"><title>11&#45;&gt;9</title>
<path fill="none" stroke="grey" stroke-width="2" d="M147.079,-719.697C141.206,-711.474 134.07,-701.483 127.597,-692.421"/>
<polygon fill="grey" stroke="grey" stroke-width="2" points="130.317,-690.207 121.656,-684.104 124.621,-694.276 130.317,-690.207"/>
</g>
<!-- 12 -->
<g id="node13" class="node"><title>12</title>
<path fill="none" stroke="#d8ac56" stroke-width="2" d="M88.817,-828C88.817,-828 12.061,-828 12.061,-828 6.06096,-828 0.0609614,-822 0.0609614,-816 0.0609614,-816 0.0609614,-804 0.0609614,-804 0.0609614,-798 6.06096,-792 12.061,-792 12.061,-792 88.817,-792 88.817,-792 94.817,-792 100.817,-798 100.817,-804 100.817,-804 100.817,-816 100.817,-816 100.817,-822 94.817,-828 88.817,-828"/>
<text text-anchor="middle" x="50.439" y="-812" font-family="sans" font-size="10.00">pe_fastq_trim</text>
<text text-anchor="middle" x="50.439" y="-802" font-family="sans" font-size="10.00">read: SRR1801135</text>
</g>
<!-- 12&#45;&gt;10 -->
<g id="edge13" class="edge"><title>12&#45;&gt;10</title>
<path fill="none" stroke="grey" stroke-width="2" d="M52.6637,-791.697C53.6555,-783.983 54.8474,-774.712 55.9531,-766.112"/>
<polygon fill="grey" stroke="grey" stroke-width="2" points="59.436,-766.469 57.2398,-756.104 52.4931,-765.576 59.436,-766.469"/>
</g>
<!-- 13 -->
<g id="node14" class="node"><title>13</title>
<path fill="none" stroke="#d8ac56" stroke-width="2" d="M207.817,-828C207.817,-828 131.061,-828 131.061,-828 125.061,-828 119.061,-822 119.061,-816 119.061,-816 119.061,-804 119.061,-804 119.061,-798 125.061,-792 131.061,-792 131.061,-792 207.817,-792 207.817,-792 213.817,-792 219.817,-798 219.817,-804 219.817,-804 219.817,-816 219.817,-816 219.817,-822 213.817,-828 207.817,-828"/>
<text text-anchor="middle" x="169.439" y="-812" font-family="sans" font-size="10.00">pe_fastq_trim</text>
<text text-anchor="middle" x="169.439" y="-802" font-family="sans" font-size="10.00">read: SRR1801136</text>
</g>
<!-- 13&#45;&gt;11 -->
<g id="edge14" class="edge"><title>13&#45;&gt;11</title>
<path fill="none" stroke="grey" stroke-width="2" d="M166.967,-791.697C165.865,-783.983 164.541,-774.712 163.312,-766.112"/>
<polygon fill="grey" stroke="grey" stroke-width="2" points="166.762,-765.509 161.882,-756.104 159.832,-766.499 166.762,-765.509"/>
</g>
</g>
</svg>
