<?xml version="1.0" encoding="UTF-8" standalone="no"?>
<!DOCTYPE svg PUBLIC "-//W3C//DTD SVG 1.1//EN"
 "http://www.w3.org/Graphics/SVG/1.1/DTD/svg11.dtd">
<!-- Generated by graphviz version 2.38.0 (20140413.2041)
 -->
<!-- Title: snakemake_dag Pages: 1 -->
<svg width="98pt" height="260pt"
 viewBox="0.00 0.00 98.49 260.00" xmlns="http://www.w3.org/2000/svg" xmlns:xlink="http://www.w3.org/1999/xlink">
<g id="graph0" class="graph" transform="scale(1 1) rotate(0) translate(4 256)">
<title>snakemake_dag</title>
<polygon fill="white" stroke="none" points="-4,4 -4,-256 94.4922,-256 94.4922,4 -4,4"/>
<!-- 0 -->
<g id="node1" class="node"><title>0</title>
<path fill="none" stroke="#d8a456" stroke-width="2" d="M60.2461,-36C60.2461,-36 30.2461,-36 30.2461,-36 24.2461,-36 18.2461,-30 18.2461,-24 18.2461,-24 18.2461,-12 18.2461,-12 18.2461,-6 24.2461,-0 30.2461,-0 30.2461,-0 60.2461,-0 60.2461,-0 66.2461,-0 72.2461,-6 72.2461,-12 72.2461,-12 72.2461,-24 72.2461,-24 72.2461,-30 66.2461,-36 60.2461,-36"/>
<text text-anchor="middle" x="45.2461" y="-15" font-family="sans" font-size="10.00">all</text>
</g>
<!-- 1 -->
<g id="node2" class="node"><title>1</title>
<path fill="none" stroke="#d87d56" stroke-width="2" d="M60.2461,-108C60.2461,-108 30.2461,-108 30.2461,-108 24.2461,-108 18.2461,-102 18.2461,-96 18.2461,-96 18.2461,-84 18.2461,-84 18.2461,-78 24.2461,-72 30.2461,-72 30.2461,-72 60.2461,-72 60.2461,-72 66.2461,-72 72.2461,-78 72.2461,-84 72.2461,-84 72.2461,-96 72.2461,-96 72.2461,-102 66.2461,-108 60.2461,-108"/>
<text text-anchor="middle" x="45.2461" y="-87" font-family="sans" font-size="10.00">filter_vcf</text>
</g>
<!-- 1&#45;&gt;0 -->
<g id="edge1" class="edge"><title>1&#45;&gt;0</title>
<path fill="none" stroke="grey" stroke-width="2" d="M45.2461,-71.6966C45.2461,-63.9827 45.2461,-54.7125 45.2461,-46.1124"/>
<polygon fill="grey" stroke="grey" stroke-width="2" points="48.7462,-46.1043 45.2461,-36.1043 41.7462,-46.1044 48.7462,-46.1043"/>
</g>
<!-- 2 -->
<g id="node3" class="node"><title>2</title>
<path fill="none" stroke="#56d892" stroke-width="2" d="M73.7949,-180C73.7949,-180 16.6973,-180 16.6973,-180 10.6973,-180 4.69725,-174 4.69725,-168 4.69725,-168 4.69725,-156 4.69725,-156 4.69725,-150 10.6973,-144 16.6973,-144 16.6973,-144 73.7949,-144 73.7949,-144 79.7949,-144 85.7949,-150 85.7949,-156 85.7949,-156 85.7949,-168 85.7949,-168 85.7949,-174 79.7949,-180 73.7949,-180"/>
<text text-anchor="middle" x="45.2461" y="-159" font-family="sans" font-size="10.00">genotype_gvcf</text>
</g>
<!-- 2&#45;&gt;1 -->
<g id="edge2" class="edge"><title>2&#45;&gt;1</title>
<path fill="none" stroke="grey" stroke-width="2" d="M45.2461,-143.697C45.2461,-135.983 45.2461,-126.712 45.2461,-118.112"/>
<polygon fill="grey" stroke="grey" stroke-width="2" points="48.7462,-118.104 45.2461,-108.104 41.7462,-118.104 48.7462,-118.104"/>
</g>
<!-- 3 -->
<g id="node4" class="node"><title>3</title>
<path fill="none" stroke="#56d0d8" stroke-width="2" d="M78.7396,-252C78.7396,-252 11.7526,-252 11.7526,-252 5.75256,-252 -0.24744,-246 -0.24744,-240 -0.24744,-240 -0.24744,-228 -0.24744,-228 -0.24744,-222 5.75256,-216 11.7526,-216 11.7526,-216 78.7396,-216 78.7396,-216 84.7396,-216 90.7396,-222 90.7396,-228 90.7396,-228 90.7396,-240 90.7396,-240 90.7396,-246 84.7396,-252 78.7396,-252"/>
<text text-anchor="middle" x="45.2461" y="-231" font-family="sans" font-size="10.00">consolidate_gvcf</text>
</g>
<!-- 3&#45;&gt;2 -->
<g id="edge3" class="edge"><title>3&#45;&gt;2</title>
<path fill="none" stroke="grey" stroke-width="2" d="M45.2461,-215.697C45.2461,-207.983 45.2461,-198.712 45.2461,-190.112"/>
<polygon fill="grey" stroke="grey" stroke-width="2" points="48.7462,-190.104 45.2461,-180.104 41.7462,-190.104 48.7462,-190.104"/>
</g>
</g>
</svg>
